<svg xmlns="http://www.w3.org/2000/svg" width="960" height="340" viewBox="0 0 960 340" role="img" aria-labelledby="title desc">
<title id="title">Development activity</title><desc id="desc">4,411 contributions, 215 active days, 2,543 contributions in the last 30 days. Snapshot 2026-10-09.</desc>
<rect width="960" height="340" rx="20" fill="#151b27"/>
<g font-family="-apple-system, BlinkMacSystemFont, Segoe UI, Helvetica, Arial, sans-serif">
<text x="36" y="36" font-size="11" font-weight="600" letter-spacing="1.8" fill="#a2aec3">DEVELOPMENT ACTIVITY</text>
<text x="924" y="36" text-anchor="end" font-size="11" fill="#a2aec3">SNAPSHOT · 2026-10-09</text>
<text x="36" y="97" font-size="43" font-weight="650" letter-spacing="-1" fill="#edf1f8">4,411</text><text x="36" y="121" font-size="10" letter-spacing="1.1" fill="#a2aec3">CONTRIBUTIONS / YEAR</text>
<text x="355" y="97" font-size="43" font-weight="650" letter-spacing="-1" fill="#edf1f8">215</text><text x="355" y="121" font-size="10" letter-spacing="1.1" fill="#a2aec3">DAYS WITH CONTRIBUTIONS</text>
<text x="674" y="97" font-size="43" font-weight="650" letter-spacing="-1" fill="#edf1f8">2,543</text><text x="674" y="121" font-size="10" letter-spacing="1.1" fill="#a2aec3">CONTRIBUTIONS / 30 DAYS</text>
<path d="M36 151H924M36 283H924" stroke="#303b50" fill="none"/>
<rect x="46.0" y="281.7" width="48.3" height="2.0" rx="5" fill="#596da2"><title>2025-10: 23 contributions</title></rect>
<text x="70.2" y="274.7" text-anchor="middle" font-size="10" fill="#a2aec3">23</text>
<text x="70.2" y="303" text-anchor="middle" font-size="11" fill="#a2aec3">Oct</text>
<rect x="114.3" y="278.5" width="48.3" height="4.5" rx="5" fill="#596da2"><title>2025-11: 77 contributions</title></rect>
<text x="138.5" y="271.5" text-anchor="middle" font-size="10" fill="#a2aec3">77</text>
<text x="138.5" y="303" text-anchor="middle" font-size="11" fill="#a2aec3">Nov</text>
<rect x="182.6" y="280.3" width="48.3" height="2.7" rx="5" fill="#596da2"><title>2025-12: 46 contributions</title></rect>
<text x="206.8" y="273.3" text-anchor="middle" font-size="10" fill="#a2aec3">46</text>
<text x="206.8" y="303" text-anchor="middle" font-size="11" fill="#a2aec3">Dec</text>
<rect x="250.9" y="280.7" width="48.3" height="2.3" rx="5" fill="#596da2"><title>2026-01: 40 contributions</title></rect>
<text x="275.1" y="273.7" text-anchor="middle" font-size="10" fill="#a2aec3">40</text>
<text x="275.1" y="303" text-anchor="middle" font-size="11" fill="#a2aec3">Jan</text>
<rect x="319.2" y="270.0" width="48.3" height="13.0" rx="5" fill="#596da2"><title>2026-02: 223 contributions</title></rect>
<text x="343.4" y="263.0" text-anchor="middle" font-size="10" fill="#a2aec3">223</text>
<text x="343.4" y="303" text-anchor="middle" font-size="11" fill="#a2aec3">Feb</text>
<rect x="387.5" y="271.8" width="48.3" height="11.2" rx="5" fill="#596da2"><title>2026-03: 192 contributions</title></rect>
<text x="411.7" y="264.8" text-anchor="middle" font-size="10" fill="#a2aec3">192</text>
<text x="411.7" y="303" text-anchor="middle" font-size="11" fill="#a2aec3">Mar</text>
<rect x="455.8" y="273.9" width="48.3" height="9.1" rx="5" fill="#596da2"><title>2026-04: 156 contributions</title></rect>
<text x="480.0" y="266.9" text-anchor="middle" font-size="10" fill="#a2aec3">156</text>
<text x="480.0" y="303" text-anchor="middle" font-size="11" fill="#a2aec3">Apr</text>
<rect x="524.2" y="275.9" width="48.3" height="7.1" rx="5" fill="#596da2"><title>2026-05: 121 contributions</title></rect>
<text x="548.3" y="268.9" text-anchor="middle" font-size="10" fill="#a2aec3">121</text>
<text x="548.3" y="303" text-anchor="middle" font-size="11" fill="#a2aec3">May</text>
<rect x="592.5" y="278.7" width="48.3" height="4.3" rx="5" fill="#596da2"><title>2026-06: 73 contributions</title></rect>
<text x="616.6" y="271.7" text-anchor="middle" font-size="10" fill="#a2aec3">73</text>
<text x="616.6" y="303" text-anchor="middle" font-size="11" fill="#a2aec3">Jun</text>
<rect x="660.8" y="276.7" width="48.3" height="6.3" rx="5" fill="#596da2"><title>2026-07: 107 contributions</title></rect>
<text x="684.9" y="269.7" text-anchor="middle" font-size="10" fill="#a2aec3">107</text>
<text x="684.9" y="303" text-anchor="middle" font-size="11" fill="#a2aec3">Jul</text>
<rect x="729.1" y="257.2" width="48.3" height="25.8" rx="5" fill="#596da2"><title>2026-08: 442 contributions</title></rect>
<text x="753.2" y="250.2" text-anchor="middle" font-size="10" fill="#a2aec3">442</text>
<text x="753.2" y="303" text-anchor="middle" font-size="11" fill="#a2aec3">Aug</text>
<rect x="797.4" y="178.0" width="48.3" height="105.0" rx="5" fill="#596da2"><title>2026-09: 1796 contributions</title></rect>
<text x="821.5" y="171.0" text-anchor="middle" font-size="10" fill="#a2aec3">1796</text>
<text x="821.5" y="303" text-anchor="middle" font-size="11" fill="#a2aec3">Sep</text>
<rect x="865.7" y="217.8" width="48.3" height="65.2" rx="5" fill="#a2afff"><title>2026-10: 1115 contributions</title></rect>
<text x="889.8" y="210.8" text-anchor="middle" font-size="10" fill="#a2aec3">1115</text>
<text x="889.8" y="303" text-anchor="middle" font-size="11" fill="#a2aec3">Oct</text>
<text x="36" y="327" font-size="10" fill="#a2aec3">2025-10-05 — 2026-10-09 · monthly totals; boundary months are partial</text></g></svg>